<?xml version="1.0" standalone="no"?>
<!DOCTYPE svg PUBLIC "-//W3C//DTD SVG 20010904//EN"
 "http://www.w3.org/TR/2001/REC-SVG-20010904/DTD/svg10.dtd">
<svg version="1.0" xmlns="http://www.w3.org/2000/svg"
 width="4096.000000pt" height="4096.000000pt" viewBox="0 0 4096.000000 4096.000000"
 preserveAspectRatio="xMidYMid meet">

<g transform="translate(0.000000,4096.000000) scale(0.100000,-0.100000)"
fill="#000000" stroke="none">
<path d="M9566 39634 c-600 -77 -1179 -381 -1573 -827 -345 -389 -540 -807
-630 -1349 -17 -97 -18 -1093 -21 -16898 -2 -12192 0 -16836 8 -16945 47 -632
297 -1183 740 -1625 295 -295 626 -498 1016 -623 425 -137 896 -158 1334 -61
750 167 1387 668 1724 1358 122 247 188 455 238 751 l23 130 2 5660 3 5660
4025 4025 4025 4025 4025 -4025 4025 -4025 3 -5660 3 -5660 21 -125 c57 -336
148 -602 294 -866 195 -350 478 -657 814 -884 563 -379 1288 -513 1965 -364
459 101 895 340 1231 674 143 142 229 247 334 405 243 365 382 776 415 1225 8
115 10 4492 8 16950 -3 15804 -4 16801 -21 16898 -98 591 -333 1060 -727 1452
-379 377 -840 614 -1387 711 -149 27 -498 37 -665 20 -489 -51 -957 -244
-1348 -558 -47 -37 -2088 -2071 -4536 -4520 l-4451 -4452 -4454 4453 c-2530
2530 -4491 4482 -4539 4520 -395 313 -853 503 -1332 555 -133 15 -460 12 -592
-5z m5157 -15281 c-1189 -1187 -2191 -2187 -2227 -2223 l-66 -64 0 4449 0
4450 2227 -2227 2227 -2227 -2161 -2158z m13805 -64 l-3 -2219 -2223 2222
-2222 2223 2222 2222 2223 2223 3 -2226 c1 -1224 1 -3224 0 -4445z"/>
</g>
</svg>
